<svg xmlns="http://www.w3.org/2000/svg" width="29.567" height="29.572" viewBox="0 0 29.567 29.572"><path d="M29.94,8.695a10.806,10.806,0,0,0-.687-3.588A7.575,7.575,0,0,0,24.926.78,10.834,10.834,0,0,0,21.339.093C19.755.017,19.253,0,15.238,0S10.72.017,9.143.087A10.809,10.809,0,0,0,5.556.774a7.216,7.216,0,0,0-2.623,1.71A7.281,7.281,0,0,0,1.228,5.1,10.835,10.835,0,0,0,.541,8.689c-.075,1.583-.093,2.086-.093,6.1s.017,4.518.087,6.095a10.805,10.805,0,0,0,.688,3.588A7.574,7.574,0,0,0,5.55,28.8a10.835,10.835,0,0,0,3.588.687c1.577.07,2.08.087,6.095.087s4.518-.017,6.095-.087a10.8,10.8,0,0,0,3.587-.687,7.564,7.564,0,0,0,4.327-4.327,10.842,10.842,0,0,0,.687-3.588c.069-1.577.087-2.08.087-6.095s-.006-4.518-.075-6.095ZM27.277,20.769a8.106,8.106,0,0,1-.508,2.744,4.906,4.906,0,0,1-2.808,2.808,8.134,8.134,0,0,1-2.744.508c-1.56.07-2.028.087-5.973.087s-4.419-.017-5.974-.087a8.1,8.1,0,0,1-2.744-.508,4.55,4.55,0,0,1-1.7-1.1,4.6,4.6,0,0,1-1.1-1.7,8.136,8.136,0,0,1-.508-2.744c-.07-1.56-.087-2.028-.087-5.974s.017-4.419.087-5.973a8.1,8.1,0,0,1,.508-2.744,4.5,4.5,0,0,1,1.109-1.7,4.591,4.591,0,0,1,1.7-1.1,8.14,8.14,0,0,1,2.744-.508c1.56-.069,2.028-.087,5.973-.087s4.419.017,5.974.087a8.106,8.106,0,0,1,2.744.508,4.547,4.547,0,0,1,1.7,1.1,4.6,4.6,0,0,1,1.1,1.7,8.139,8.139,0,0,1,.508,2.744c.069,1.56.087,2.028.087,5.973s-.017,4.408-.087,5.968Zm0,0" transform="translate(-0.449 0)" fill="#fff"/><path d="M132.546,124.5a7.6,7.6,0,1,0,7.6,7.6A7.6,7.6,0,0,0,132.546,124.5Zm0,12.525a4.928,4.928,0,1,1,4.928-4.928A4.929,4.929,0,0,1,132.546,137.025Zm0,0" transform="translate(-117.757 -117.308)" fill="#fff"/><path d="M366,90.375a1.774,1.774,0,1,1-1.774-1.774A1.774,1.774,0,0,1,366,90.375Zm0,0" transform="translate(-341.537 -83.483)" fill="#fff"/></svg>