<svg xmlns="http://www.w3.org/2000/svg" width="31.564" height="25.887" viewBox="0 0 31.564 25.887"><path d="M21.116.162c-.1.014-.355.068-.56.119s-.52.148-.7.214-.516.215-.747.331a7.666,7.666,0,0,0-.918.581,7.79,7.79,0,0,0-.871.771,7.45,7.45,0,0,0-.641.8,8.513,8.513,0,0,0-.482.855,7.738,7.738,0,0,0-.365.965A9.029,9.029,0,0,0,15.6,5.938a6.549,6.549,0,0,0-.039,1.089c.021.257.06.6.087.764l.049.3a10.665,10.665,0,0,1-1.323-.1c-.4-.052-1.026-.153-1.385-.224s-.99-.227-1.4-.344-.929-.28-1.152-.36-.685-.262-1.027-.4-.937-.426-1.323-.629-.862-.472-1.058-.6-.568-.368-.825-.542-.733-.525-1.058-.782S4.17,3.263,3.7,2.8s-.977-.992-1.12-1.172A1.57,1.57,0,0,0,2.27,1.3a1.028,1.028,0,0,0-.211.327,7.348,7.348,0,0,0-.314.763c-.082.24-.191.618-.244.84A7.669,7.669,0,0,0,1.37,4.32a5.493,5.493,0,0,0,.074,1.338,8.328,8.328,0,0,0,.249,1.058,7.779,7.779,0,0,0,.335.794c.108.214.3.55.426.747a7.7,7.7,0,0,0,.794.924c.31.311.647.627.75.7l.187.135c-.482-.057-.777-.1-.965-.136a7.265,7.265,0,0,1-.747-.191,5.994,5.994,0,0,1-.747-.305c-.189-.1-.364-.156-.391-.131a.616.616,0,0,0-.047.293,6.846,6.846,0,0,0,.1.809,8.538,8.538,0,0,0,.226.965,8.021,8.021,0,0,0,.378.9,8.4,8.4,0,0,0,.533.9,8.191,8.191,0,0,0,.725.847,7.194,7.194,0,0,0,.969.789,8.839,8.839,0,0,0,.949.538,6.706,6.706,0,0,0,.84.306l.42.114a12.244,12.244,0,0,1-1.276.179,5.917,5.917,0,0,1-1.027-.027,2.266,2.266,0,0,0-.529-.036,1.494,1.494,0,0,0,.15.451c.1.231.286.6.413.824a7.754,7.754,0,0,0,.5.747,8.855,8.855,0,0,0,.676.737,7,7,0,0,0,.814.662c.222.147.573.352.778.454a8.712,8.712,0,0,0,.84.35,8.281,8.281,0,0,0,1.152.275l.685.111a22.615,22.615,0,0,1-2.116,1.286c-.377.188-.965.447-1.307.575s-.945.316-1.338.416-1.01.226-1.369.28a16.986,16.986,0,0,1-1.93.111,7.687,7.687,0,0,0-1.292.071,1.771,1.771,0,0,0,.5.347c.283.159.794.43,1.136.6s.86.406,1.152.526.837.317,1.214.439.909.282,1.183.355.792.187,1.152.254,1,.162,1.432.213,1.322.092,2.023.092c.685,0,1.553-.028,1.93-.063s1.035-.121,1.463-.192,1.142-.222,1.587-.336,1.173-.338,1.618-.5,1.131-.444,1.525-.631.94-.469,1.214-.626.75-.453,1.058-.657.882-.631,1.276-.947,1.108-.98,1.588-1.472a21.177,21.177,0,0,0,1.463-1.683c.325-.434.772-1.078.993-1.432s.6-1.036.845-1.515.59-1.25.771-1.712.436-1.219.568-1.681.286-1.05.34-1.307.155-.831.223-1.276a20.22,20.22,0,0,0,.165-2.116l.04-1.307A16.324,16.324,0,0,0,30.447,5.03c.339-.357.795-.886,1.013-1.177a1.813,1.813,0,0,0,.349-.575,3.341,3.341,0,0,0-.826.227,15.268,15.268,0,0,1-1.494.43c-.394.086-.828.175-.965.2l-.249.041a9.486,9.486,0,0,0,.96-.73,7.633,7.633,0,0,0,.708-.771,7.863,7.863,0,0,0,.578-.84,8.221,8.221,0,0,0,.366-.763A.931.931,0,0,0,31,.653a5.109,5.109,0,0,0-.825.36c-.428.212-1.073.49-1.432.618s-.927.294-1.261.37l-.608.139a6.726,6.726,0,0,0-.84-.731,7.467,7.467,0,0,0-.9-.575c-.223-.111-.6-.274-.84-.36a7.586,7.586,0,0,0-.965-.257,6.808,6.808,0,0,0-1.276-.09C21.638.132,21.218.149,21.116.162Z" transform="translate(-0.247 -0.126)" fill="#fff"/></svg>