<svg xmlns="http://www.w3.org/2000/svg" width="35.244" height="29.229" viewBox="0 0 35.244 29.229"><path d="M-25.866-100.141a18.955,18.955,0,0,1-2.151-.127q-3.469-.507-3.469-1.522l.139-.38q1.526-1.775,1.526-7.926,0-3.234-.416-7.735-.278-2.726-.278-4.565,0-3.931,2.012-5.326,2.289-1.649,8.742-1.649,2.706,0,3.261.761.9,1.141.9,7.862,0,11.413-1.041,14.71a9.063,9.063,0,0,1-6.383,5.58A12.145,12.145,0,0,1-25.866-100.141Zm-19.356,0a18.955,18.955,0,0,1-2.151-.127q-3.469-.507-3.469-1.522l.139-.38q1.526-1.775,1.526-7.926,0-3.234-.416-7.735-.278-2.726-.278-4.565,0-3.931,2.012-5.326,2.289-1.649,8.742-1.649,2.706,0,3.261.761.9,1.141.9,7.862,0,11.413-1.041,14.71a9.063,9.063,0,0,1-6.383,5.58A12.144,12.144,0,0,1-45.223-100.141Z" transform="translate(50.842 129.37)" fill="#9ac73b" opacity="0.6"/></svg>