<svg xmlns="http://www.w3.org/2000/svg" xmlns:xlink="http://www.w3.org/1999/xlink" width="354.117" height="321.188" viewBox="0 0 354.117 321.188"><defs><filter id="a" x="166.538" y="217.66" width="41.134" height="11.662" filterUnits="userSpaceOnUse"><feOffset dy="1" input="SourceAlpha"/><feGaussianBlur stdDeviation="0.5" result="b"/><feFlood flood-color="#505050" flood-opacity="0.071"/><feComposite operator="in" in2="b"/><feComposite in="SourceGraphic"/></filter><filter id="c" x="120.615" y="220.857" width="133.399" height="29.265" filterUnits="userSpaceOnUse"><feOffset dy="1" input="SourceAlpha"/><feGaussianBlur stdDeviation="0.5" result="d"/><feFlood flood-color="#505050" flood-opacity="0.071"/><feComposite operator="in" in2="d"/><feComposite in="SourceGraphic"/></filter><filter id="e" x="67.025" y="114.485" width="19.644" height="11.634" filterUnits="userSpaceOnUse"><feOffset dy="1" input="SourceAlpha"/><feGaussianBlur stdDeviation="0.5" result="f"/><feFlood flood-color="#505050" flood-opacity="0.071"/><feComposite operator="in" in2="f"/><feComposite in="SourceGraphic"/></filter></defs><g transform="translate(-5576.856 4173.342)"><path d="M115.49-1.24c57.756-1.85,103.268,20.55,119.867,64.869,6.394,17.07,53.146,48.184,41.636,103.062s-10.078,52.428-53.8,93.511-109.148,32.064-138.12,32.064c-25.87,0-86.853-25.178-102.828-35.732-26.884-17.758-22.849-76.22-22.849-120.841,0-44.55,23.676-58.908,58.438-81.851C37.806,40.657,57.735.61,115.49-1.24Z" transform="matrix(0.996, 0.087, -0.087, 0.996, 5653.108, -4168.443)" fill="#fff"/><path d="M-4435.463,5646.659c-18.083,0-34.741-2.36-48.126-4.256l-.034,0-.1-.014c-5.091-.721-9.487-1.343-13.355-1.75-1.521-.16-3.209-.43-5.016-.8v-56.26a4,4,0,0,1,4-4h108a4,4,0,0,1,4,4v55.51a129.932,129.932,0,0,1-23.187,5.693A173.7,173.7,0,0,1-4435.463,5646.659Z" transform="translate(10110.334 -9588.137) rotate(-1)" fill="#acdf41"/><g transform="translate(5698.562 -3953.806) rotate(-1)"><g transform="matrix(1, 0.02, -0.02, 1, -117.86, -221.63)" filter="url(#a)"><rect width="38" height="8" rx="4" transform="translate(168.04 218.82) rotate(-1)" fill="#acdf41"/></g><g transform="matrix(1, 0.02, -0.02, 1, -117.86, -221.63)" filter="url(#c)"><rect width="130" height="24" rx="4" transform="translate(122.11 223.63) rotate(-1)" fill="#acdf41"/></g></g><path d="M224.925,335.557h0c-1.636-.024-3.319-.067-5-.128l-.774-44.362a2.5,2.5,0,0,1,2.456-2.543h.045a2.512,2.512,0,0,1,2.5,2.456l.778,44.578Zm27.018-1.421h0l-.752-43.069a2.5,2.5,0,0,1,2.455-2.543h.045a2.51,2.51,0,0,1,2.5,2.456l.741,42.429c-1.644.268-3.322.512-4.987.728Zm-57.472-.719h0c-1.553-.176-3.192-.367-5.009-.586l-.729-41.763a2.5,2.5,0,0,1,2.456-2.543h.045a2.512,2.512,0,0,1,2.5,2.456l.741,42.437Z" transform="translate(5542.096 -4200.479)" fill="#fff"/><g transform="translate(5548.854 -4189.579) rotate(-9)"><g transform="translate(8 0.422)"><g transform="translate(18.735 -4)"><rect width="58.074" height="11" rx="5.5" transform="matrix(0.914, -0.407, 0.407, 0.914, -9.528, 190.348)" fill="#fc0"/><g transform="translate(32.244 139.107) rotate(3)"><g transform="matrix(0.99, 0.1, -0.1, 0.99, -39.84, -113.18)" filter="url(#e)"><rect width="16" height="7" rx="1" transform="translate(68.52 116.66) rotate(-6)" fill="#464646"/></g><path d="M14,0h7A14,14,0,0,1,35,14V74a4,4,0,0,1-4,4H4a4,4,0,0,1-4-4V14A14,14,0,0,1,14,0Z" transform="translate(7.115 18)" fill="#464646"/></g><rect width="64" height="11" rx="5.5" transform="translate(9 185)" fill="#fc0"/><rect width="64" height="11" rx="5.5" transform="translate(16 197)" fill="#fc0"/><path d="M5.5,0h37a5.5,5.5,0,0,1,0,11H5.5a5.5,5.5,0,0,1,0-11Z" transform="translate(22 209)" fill="#fc0"/><rect width="37" height="11" rx="5.5" transform="translate(24 221)" fill="#fc0"/><path d="M5036.92-3838l14.733.911,2.752,11.262-2.752,11.078-5.181,11.632-2.1,11.123s-16.467,1.48-24.413,1.565a133.487,133.487,0,0,1-14.021-.671c-9.616-.8-12.746-8.05-12.746-8.05l1.964-36.228a72.875,72.875,0,0,1,13.964-6.171,58,58,0,0,1,14.021-2.932Z" transform="translate(-5008 4024)" fill="#fc0"/></g></g><path d="M0,0H13a3,3,0,0,1,3,3V49a3,3,0,0,1-3,3H0a0,0,0,0,1,0,0V0A0,0,0,0,1,0,0Z" transform="translate(0 179)" fill="#acdf41"/></g><g transform="translate(5897.385 -4062.436) rotate(160)"><g transform="translate(11.93 0)"><g transform="translate(0 0)"><rect width="58.074" height="11" rx="5.5" transform="matrix(0.914, -0.407, 0.407, 0.914, 5.278, 40.882)" fill="#fc0"/><g transform="translate(232.904 130.722) rotate(166)"><g transform="translate(135 83)" fill="#a65734"><path d="M 13.90215110778809 83.9949951171875 L 12.96378612518311 82.53550720214844 L 12.79866409301758 82.27869415283203 L 12.49478626251221 82.30825042724609 L 9.176339149475098 82.631103515625 L 7.103941917419434 81.79441833496094 L 6.882264137268066 81.70492553710938 L 6.673430442810059 81.82125854492188 L 4.787922382354736 82.87162780761719 L 3.431030511856079 81.92897033691406 L 3.099441766738892 81.69861602783203 L 2.80441951751709 81.97425079345703 L 1.822901010513306 82.89122772216797 L 0.4999972581863403 82.44650268554688 L 0.4999972581863403 74.0250244140625 L 1.834430575370789 70.02341461181641 L 1.860108375549316 69.94640350341797 L 1.860108375549316 69.865234375 L 1.860108375549316 14.80639266967773 L 1.860108375549316 14.72520446777344 L 1.83441948890686 14.648193359375 L 0.4999972581863403 10.64733600616455 L 0.4999972581863403 2.226109027862549 L 1.822859644889832 1.781391501426697 L 2.804374933242798 2.698570728302002 L 3.099430561065674 2.974292993545532 L 3.431063890457153 2.743848562240601 L 4.787966728210449 1.800980925559998 L 6.673463821411133 2.851126432418823 L 6.882363796234131 2.96747088432312 L 7.104074954986572 2.877892971038818 L 9.176361083984375 2.040554523468018 L 12.49465274810791 2.36433744430542 L 12.79867458343506 2.394004106521606 L 12.96383094787598 2.137037515640259 L 13.902174949646 0.6770132780075073 L 16.61875343322754 2.296204090118408 L 16.94724082946777 2.491992950439453 L 17.22221946716309 2.226237535476685 L 18.62873649597168 0.8669007420539856 L 20.288330078125 1.855359673500061 L 20.42595291137695 1.937326431274414 L 20.58559799194336 1.924059748649597 L 22.61157417297363 1.75567901134491 L 22.61157417297363 10.64735221862793 L 21.27762031555176 14.64824867248535 L 21.251953125 14.72523784637451 L 21.251953125 14.80639266967773 L 21.251953125 69.865234375 L 21.251953125 69.94638061523438 L 21.27762031555176 70.02336120605469 L 22.61157417297363 74.02497863769531 L 22.61157417297363 82.91687774658203 L 20.58564186096191 82.74830627441406 L 20.42605209350586 82.73502349853516 L 20.28844261169434 82.81694030761719 L 18.62871360778809 83.80487060546875 L 17.22212028503418 82.44627380371094 L 16.94719696044922 82.18072509765625 L 16.61882972717285 82.37637329101563 L 13.90215110778809 83.9949951171875 Z" stroke="none"/><path d="M 14.06136703491211 83.31809997558594 L 16.3629035949707 81.94683074951172 L 17.01963233947754 81.55555725097656 L 17.56948089599609 82.08664703369141 L 18.70126914978027 83.1798095703125 L 20.0327033996582 82.38729095458984 L 20.30792808532715 82.22346496582031 L 20.62710380554199 82.25003051757813 L 22.11157417297363 82.37355041503906 L 22.11157417297363 74.10614776611328 L 20.80326843261719 70.18148040771484 L 20.75195121765137 70.02751159667969 L 20.75195121765137 69.865234375 L 20.75195121765137 14.806396484375 L 20.75195121765137 14.64407825469971 L 20.80329132080078 14.49010181427002 L 22.11157417297363 10.56620597839355 L 22.11157417297363 2.298966646194458 L 20.62701034545898 2.422349214553833 L 20.3077278137207 2.448878765106201 L 20.03246879577637 2.284937381744385 L 18.70131492614746 1.492096662521362 L 17.56969261169434 2.585761070251465 L 17.01973915100098 3.117278575897217 L 16.36276245117188 2.725690364837646 L 14.06143569946289 1.354002475738525 L 13.38445663452148 2.407361030578613 L 13.05415058135986 2.921302318572998 L 12.4460916519165 2.861972808837891 L 9.249895095825195 2.550108671188354 L 7.291386127471924 3.341478586196899 L 6.847974300384521 3.520655155181885 L 6.430174350738525 3.287949323654175 L 4.817171096801758 2.389566421508789 L 3.716386079788208 3.154466867446899 L 3.053115606307983 3.615349292755127 L 2.462997913360596 3.063902139663696 L 1.699438095092773 2.350385665893555 L 0.9999979138374329 2.585519313812256 L 0.9999979138374329 10.56615161895752 L 2.308727264404297 14.4899959564209 L 2.360103845596313 14.6440315246582 L 2.360103845596313 14.806396484375 L 2.360103845596313 69.865234375 L 2.360103845596313 70.02757263183594 L 2.308750867843628 70.18157196044922 L 0.9999979138374329 74.10619354248047 L 0.9999979138374329 82.08709716796875 L 1.699501752853394 82.32225036621094 L 2.46306848526001 81.60887908935547 L 3.053127288818359 81.05760955810547 L 3.716303825378418 81.51834106445313 L 4.817054271697998 82.28305053710938 L 6.430091857910156 81.38446807861328 L 6.847774505615234 81.15178680419922 L 7.29112720489502 81.33077239990234 L 9.249892234802246 82.12158966064453 L 12.44637393951416 81.81060791015625 L 13.05412769317627 81.75148773193359 L 13.38435077667236 82.26509857177734 L 14.06136703491211 83.31809997558594 M 13.74291515350342 84.671875 L 12.54321002960205 82.80591583251953 L 9.102786064147949 83.14063262939453 L 6.916750907897949 82.258056640625 L 4.758786201477051 83.460205078125 L 3.145750761032104 82.339599609375 L 1.946292042732239 83.460205078125 L -2.102481630572584e-06 82.80591583251953 L -2.102481630572584e-06 73.94384002685547 L 1.360103726387024 69.865234375 L 1.360103726387024 14.806396484375 L -2.102481630572584e-06 10.72851371765137 L -2.102481630572584e-06 1.866702198982239 L 1.946292042732239 1.212408065795898 L 3.145750761032104 2.333255052566528 L 4.758786201477051 1.212408065795898 L 6.916750907897949 2.414314031600952 L 9.102786064147949 1.531008124351501 L 12.54321002960205 1.866702198982239 L 13.74291515350342 -3.676470669233822e-06 L 16.8747501373291 1.866702198982239 L 18.55615043640137 0.2417021989822388 L 20.54418563842773 1.425784587860107 L 23.11157417297363 1.212408065795898 L 23.11157417297363 10.72851371765137 L 21.75195121765137 14.806396484375 L 21.75195121765137 69.865234375 L 23.11157417297363 73.94384002685547 L 23.11157417297363 83.460205078125 L 20.54418563842773 83.24658203125 L 18.55615043640137 84.42993927001953 L 16.8747501373291 82.80591583251953 L 13.74291515350342 84.671875 Z" stroke="none" fill="#a65734"/></g><rect width="12.235" height="38.066" transform="translate(140.438 106.791)" fill="#dfdfdf"/></g><rect width="64" height="11" rx="5.5" transform="translate(23.806 35.534)" fill="#fc0"/><rect width="64" height="11" rx="5.5" transform="translate(30.806 47.534)" fill="#fc0"/><path d="M5.5,0h37a5.5,5.5,0,0,1,0,11H5.5a5.5,5.5,0,0,1,0-11Z" transform="translate(36.806 59.534)" fill="#fc0"/><rect width="37" height="11" rx="5.5" transform="translate(38.806 71.534)" fill="#fc0"/><path d="M43.726,6.481l14.733.911,2.751,11.262L58.459,29.732,53.278,41.364l-2.1,11.123s-16.467,1.48-24.413,1.565a133.487,133.487,0,0,1-14.021-.671C3.129,52.578,0,45.331,0,45.331L1.964,9.1A72.875,72.875,0,0,1,15.928,2.932,58,58,0,0,1,29.948,0Z" transform="translate(0 30.054)" fill="#fc0"/></g></g><path d="M0,0H13a3,3,0,0,1,3,3V49a3,3,0,0,1-3,3H0a0,0,0,0,1,0,0V0A0,0,0,0,1,0,0Z" transform="translate(0 33.113)" fill="#acdf41"/></g></g></svg>